<svg width="32" height="32" viewBox="0 0 32 32" fill="none" xmlns="http://www.w3.org/2000/svg">
<path fill-rule="evenodd" clip-rule="evenodd" d="M27.9907 16.0256C27.9908 16.0171 27.9908 16.0085 27.9908 16C27.9908 9.37258 22.6203 4 15.9954 4C9.37052 4 4 9.37258 4 16C4 22.6274 9.37052 28 15.9954 28C16.0039 28 16.0124 28 16.021 28H29.79C29.9822 28 30.0731 27.7436 29.93 27.6153C29.2333 26.9908 27.9908 25.6954 27.9908 24.4L27.9907 16.0256Z" fill="black"/>
<path d="M27.9907 16.0256L26.7407 16.0231L26.7407 16.0256L27.9907 16.0256ZM16.021 28L16.021 26.75L16.0185 26.75L16.021 28ZM29.93 27.6153L30.7643 26.6845L30.7643 26.6845L29.93 27.6153ZM27.9908 24.4L29.2408 24.4L29.2408 24.4L27.9908 24.4ZM26.7408 16C26.7408 16.0076 26.7408 16.0153 26.7408 16.0231L29.2407 16.0281C29.2408 16.0188 29.2408 16.0095 29.2408 16H26.7408ZM15.9954 5.25C21.9294 5.25 26.7408 10.0625 26.7408 16H29.2408C29.2408 8.68268 23.3111 2.75 15.9954 2.75V5.25ZM5.25 16C5.25 10.0625 10.0613 5.25 15.9954 5.25V2.75C8.67971 2.75 2.75 8.68268 2.75 16H5.25ZM15.9954 26.75C10.0613 26.75 5.25 21.9375 5.25 16H2.75C2.75 23.3173 8.67971 29.25 15.9954 29.25V26.75ZM16.0185 26.75C16.0107 26.75 16.003 26.75 15.9954 26.75V29.25C16.0048 29.25 16.0142 29.25 16.0235 29.25L16.0185 26.75ZM29.79 26.75H16.021V29.25H29.79V26.75ZM29.0956 28.5461C28.7224 28.2115 28.6981 27.7421 28.8097 27.4322C28.9229 27.1176 29.2591 26.75 29.79 26.75V29.25C30.5132 29.25 30.9908 28.7541 31.1618 28.2792C31.3311 27.8092 31.2807 27.1474 30.7643 26.6845L29.0956 28.5461ZM26.7408 24.4C26.7408 25.4264 27.2206 26.3317 27.6777 26.9798C28.1507 27.6503 28.7109 28.2012 29.0956 28.5461L30.7643 26.6845C30.4524 26.4049 30.043 25.9959 29.7206 25.5387C29.3822 25.0591 29.2408 24.669 29.2408 24.4H26.7408ZM26.7407 16.0256L26.7408 24.4L29.2408 24.4L29.2407 16.0256L26.7407 16.0256Z" fill="black"/>
<path fill-rule="evenodd" clip-rule="evenodd" d="M12 16.5C12 17.3284 11.3284 18 10.5 18C9.67157 18 9 17.3284 9 16.5C9 15.6716 9.67157 15 10.5 15C11.3284 15 12 15.6716 12 16.5ZM17.5 16.5C17.5 17.3284 16.8284 18 16 18C15.1716 18 14.5 17.3284 14.5 16.5C14.5 15.6716 15.1716 15 16 15C16.8284 15 17.5 15.6716 17.5 16.5ZM21.5 18C22.3284 18 23 17.3284 23 16.5C23 15.6716 22.3284 15 21.5 15C20.6716 15 20 15.6716 20 16.5C20 17.3284 20.6716 18 21.5 18Z" fill="white"/>
</svg>
