<svg width="32" height="32" viewBox="0 0 32 32" fill="none" xmlns="http://www.w3.org/2000/svg">
<path fill-rule="evenodd" clip-rule="evenodd" d="M4.94907 10.4744C4.35913 10.8388 4 11.4827 4 12.1761V25.999C4 27.1035 4.89543 27.999 6 27.999H13.3333V23.3608C13.3333 21.888 14.5272 20.6941 16 20.6941C17.4728 20.6941 18.6667 21.888 18.6667 23.3608V27.999H26C27.1046 27.999 28 27.1035 28 25.999V12.1761C28 11.4827 27.6409 10.8388 27.0509 10.4744L17.0509 4.29837C16.4068 3.90054 15.5932 3.90054 14.9491 4.29837L4.94907 10.4744Z" fill="black"/>
<path d="M4.94907 10.4744L5.6059 11.5379L5.6059 11.5379L4.94907 10.4744ZM13.3333 27.999V29.249H14.5833V27.999H13.3333ZM18.6667 27.999H17.4167V29.249H18.6667V27.999ZM27.0509 10.4744L27.7078 9.41091L27.7078 9.41091L27.0509 10.4744ZM17.0509 4.29837L17.7078 3.23486L17.7078 3.23486L17.0509 4.29837ZM14.9491 4.29837L14.2922 3.23485L14.2922 3.23485L14.9491 4.29837ZM5.25 12.1761C5.25 11.916 5.38467 11.6746 5.6059 11.5379L4.29223 9.41091C3.33359 10.003 2.75 11.0493 2.75 12.1761H5.25ZM5.25 25.999V12.1761H2.75V25.999H5.25ZM6 26.749C5.58579 26.749 5.25 26.4132 5.25 25.999H2.75C2.75 27.7939 4.20507 29.249 6 29.249V26.749ZM13.3333 26.749H6V29.249H13.3333V26.749ZM14.5833 27.999V23.3608H12.0833V27.999H14.5833ZM14.5833 23.3608C14.5833 22.5784 15.2176 21.9441 16 21.9441V19.4441C13.8369 19.4441 12.0833 21.1977 12.0833 23.3608H14.5833ZM16 21.9441C16.7824 21.9441 17.4167 22.5784 17.4167 23.3608H19.9167C19.9167 21.1977 18.1631 19.4441 16 19.4441V21.9441ZM17.4167 23.3608V27.999H19.9167V23.3608H17.4167ZM26 26.749H18.6667V29.249H26V26.749ZM26.75 25.999C26.75 26.4132 26.4142 26.749 26 26.749V29.249C27.7949 29.249 29.25 27.7939 29.25 25.999H26.75ZM26.75 12.1761V25.999H29.25V12.1761H26.75ZM26.3941 11.5379C26.6153 11.6746 26.75 11.916 26.75 12.1761H29.25C29.25 11.0493 28.6664 10.003 27.7078 9.41091L26.3941 11.5379ZM16.3941 5.36189L26.3941 11.5379L27.7078 9.41091L17.7078 3.23486L16.3941 5.36189ZM15.6059 5.36189C15.8475 5.2127 16.1525 5.2127 16.3941 5.36189L17.7078 3.23486C16.661 2.58838 15.339 2.58838 14.2922 3.23485L15.6059 5.36189ZM5.6059 11.5379L15.6059 5.36189L14.2922 3.23485L4.29223 9.41091L5.6059 11.5379Z" fill="black"/>
</svg>
