<svg width="16" height="16" viewBox="0 0 16 16" fill="none" xmlns="http://www.w3.org/2000/svg">
<path d="M7.33366 12.667C7.33366 13.0352 7.63214 13.3337 8.00032 13.3337C8.36851 13.3337 8.66699 13.0352 8.66699 12.667C8.66699 12.2988 8.36851 12.0003 8.00033 12.0003C7.63214 12.0003 7.33366 12.2988 7.33366 12.667Z" fill="black"/>
<path d="M7.33366 8.00033C7.33366 8.36851 7.63214 8.66699 8.00033 8.66699C8.36852 8.66699 8.66699 8.36852 8.66699 8.00033C8.66699 7.63214 8.36852 7.33366 8.00033 7.33366C7.63214 7.33366 7.33366 7.63214 7.33366 8.00033Z" fill="black"/>
<path d="M7.33366 3.33366C7.33366 3.70185 7.63214 4.00033 8.00033 4.00033C8.36852 4.00033 8.66699 3.70185 8.66699 3.33366C8.66699 2.96547 8.36852 2.66699 8.00033 2.66699C7.63214 2.66699 7.33366 2.96547 7.33366 3.33366Z" fill="black"/>
<path d="M7.33366 12.667C7.33366 13.0352 7.63214 13.3337 8.00032 13.3337C8.36851 13.3337 8.66699 13.0352 8.66699 12.667C8.66699 12.2988 8.36851 12.0003 8.00033 12.0003C7.63214 12.0003 7.33366 12.2988 7.33366 12.667Z" stroke="black" stroke-linecap="round" stroke-linejoin="round"/>
<path d="M7.33366 8.00033C7.33366 8.36851 7.63214 8.66699 8.00033 8.66699C8.36852 8.66699 8.66699 8.36852 8.66699 8.00033C8.66699 7.63214 8.36852 7.33366 8.00033 7.33366C7.63214 7.33366 7.33366 7.63214 7.33366 8.00033Z" stroke="black" stroke-linecap="round" stroke-linejoin="round"/>
<path d="M7.33366 3.33366C7.33366 3.70185 7.63214 4.00033 8.00033 4.00033C8.36852 4.00033 8.66699 3.70185 8.66699 3.33366C8.66699 2.96547 8.36852 2.66699 8.00033 2.66699C7.63214 2.66699 7.33366 2.96547 7.33366 3.33366Z" stroke="black" stroke-linecap="round" stroke-linejoin="round"/>
</svg>
