<svg width="32" height="32" viewBox="0 0 32 32" fill="none" xmlns="http://www.w3.org/2000/svg">
<path d="M9.16297 11.2228C9.74381 10.6035 11.7328 8.4245 16.4415 4.0543C16.4785 4.01998 16.528 4 16.5785 4H23.5273C23.704 4 23.7939 4.21244 23.6708 4.33927L17.3925 10.8097C17.3143 10.8903 17.3177 11.0193 17.4 11.0956L23.8207 17.0511C23.9134 17.1371 23.9041 17.2863 23.8014 17.3601L9.94664 27.3195C9.7641 27.4507 9.53734 27.2275 9.66572 27.0429L16.3917 17.3731C16.4524 17.2858 16.4342 17.1662 16.3502 17.101L9.18596 11.5358C9.08853 11.4601 9.07857 11.3128 9.16297 11.2228Z" stroke="black" stroke-width="2.5"/>
</svg>
